<?xml version="1.0" encoding="UTF-8"?>
<svg version="1.1" xmlns="http://www.w3.org/2000/svg" width="500" height="500">
<path d="M0 0 C165 0 330 0 500 0 C500 165 500 330 500 500 C335 500 170 500 0 500 C0 335 0 170 0 0 Z " fill="#2B2B2C" transform="translate(0,0)"/>
<path d="M0 0 C16.83 0 33.66 0 51 0 C51 69.96 51 139.92 51 212 C34.17 212 17.34 212 0 212 C0 142.04 0 72.08 0 0 Z " fill="#F9FAFA" transform="translate(377,133)"/>
<path d="M0 0 C2.02054804 1.64169528 4.02043058 3.30911778 6 5 C10.70920127 6.92309374 15.58499613 8.35373136 20.49609375 9.66796875 C25.76626604 11.17503708 29.11067047 13.39416602 33.078125 17.18359375 C35.01589646 19.08644356 35.01589646 19.08644356 37.44921875 20.8203125 C46.59024831 28.63148324 52.13563001 41.55731642 53.3359375 53.28125 C53.96639173 73.64977134 43.07141756 91.73747755 29.78515625 106.453125 C11.81542224 125.02290285 -15.44140667 142.2977295 -42 143 C-42.63351836 123.1966855 -38.30766843 108.11707216 -26.2265625 92.22265625 C-25 91 -25 91 -23 91 C-22.505 89.515 -22.505 89.515 -22 88 C-20.58831736 86.8235978 -19.17263356 85.65157049 -17.734375 84.5078125 C-15.1627801 82.27214666 -13.05498714 79.6932558 -10.8515625 77.1015625 C-8.98548429 74.98352436 -7.02662943 73.02653084 -5 71.0625 C-2.17243764 68.25153781 0.51029797 65.37717202 3.0625 62.3125 C3.65160156 61.60738281 4.24070312 60.90226562 4.84765625 60.17578125 C6.22906767 58.02453337 6.22906767 58.02453337 5.83984375 55.390625 C4.29713666 50.99929133 0.70488847 48.88194057 -3.2578125 46.83203125 C-15.70520646 41.14238088 -27.58916009 42.48597007 -40.62109375 45.3125 C-46.82386934 46.57456763 -51.57391677 47.11710693 -57.25 44 C-62.03203531 40.66880175 -64.44762359 36.10475282 -67 31 C-67.75393243 23.6584285 -67.05745468 18.18549036 -63 12 C-62.46375 11.13375 -61.9275 10.2675 -61.375 9.375 C-47.28634725 -4.71365275 -18.01110791 -7.64107608 0 0 Z " fill="#1BACA4" transform="translate(228,212)"/>
<path d="M0 0 C8.3085241 6.340043 13.25510841 15.08563774 16.5390625 24.9375 C17.24289411 32.07966007 16.87142818 38.03099502 12.5390625 43.9375 C9.41345343 46.83985128 7.03953005 48.73289079 2.7890625 49.3125 C-1.39302886 48.829951 -3.74069737 47.0161469 -6.4609375 43.9375 C-7.54627553 41.3693365 -8.34190048 39.15985071 -9.0234375 36.5 C-10.82214927 29.68130937 -13.20039985 25.40507489 -18.90234375 21.08984375 C-23.61386569 18.96786059 -28.41025418 19.34047629 -33.4609375 19.9375 C-37.98019066 21.90953774 -41.0796698 24.96503004 -43.546875 29.20703125 C-47.11854746 39.87625795 -44.6318182 52.09368249 -40.0546875 61.97265625 C-32.10081142 77.71157613 -19.74044169 91.01702757 -7.8984375 103.9375 C-2.40728704 109.98876781 2.61064477 116.42404467 7.5390625 122.9375 C7.97130127 123.49832275 8.40354004 124.05914551 8.84887695 124.63696289 C12.00091173 128.85262268 14.20178735 133.15253148 16.2265625 138 C16.52111328 138.68126953 16.81566406 139.36253906 17.11914062 140.06445312 C17.95188738 142.01251913 18.74988457 143.97145494 19.5390625 145.9375 C19.93351562 146.88625 20.32796875 147.835 20.734375 148.8125 C21.86263746 153.19410178 21.78981349 157.37086395 21.7265625 161.875 C21.7255957 163.17727539 21.7255957 163.17727539 21.72460938 164.50585938 C21.66776004 172.86271217 20.70356529 179.49318996 16.8515625 186.9375 C16.48853027 187.64447021 16.12549805 188.35144043 15.75146484 189.07983398 C9.94985332 200.10596687 1.44597758 207.73505938 -10.4609375 211.9375 C-23.70159031 215.45337956 -40.09088867 214.05736201 -52.0703125 207.51171875 C-56.37825656 204.78757765 -60.0385027 201.72992775 -63.4609375 197.9375 C-64.28658203 197.08285156 -64.28658203 197.08285156 -65.12890625 196.2109375 C-65.69222656 195.60507812 -66.25554687 194.99921875 -66.8359375 194.375 C-67.35929687 193.81683594 -67.88265625 193.25867188 -68.421875 192.68359375 C-69.4609375 190.9375 -69.4609375 190.9375 -69.38671875 189.1328125 C-68.05341544 185.97113966 -66.17964712 183.21090755 -64.2734375 180.375 C-60.33261988 174.39479547 -56.7692253 168.29460205 -53.4609375 161.9375 C-51.07819249 164.32024501 -50.43262392 166.7096665 -49.32421875 169.8359375 C-48.48816163 171.87122587 -47.52830998 173.51222358 -46.2734375 175.3125 C-44.4609375 177.9375 -44.4609375 177.9375 -44.4609375 179.9375 C-43.8628125 180.22625 -43.2646875 180.515 -42.6484375 180.8125 C-40.4609375 181.9375 -40.4609375 181.9375 -37.4609375 183.9375 C-31.14089778 185.5779762 -24.26859009 185.92537776 -18.0859375 183.75 C-11.35304873 179.10110061 -8.00183561 173.56019432 -5.4609375 165.9375 C-3.60166053 142.48404911 -13.15267355 125.41975948 -27.296875 107.44921875 C-29.39341563 104.78875373 -29.39341563 104.78875373 -32.4609375 102.9375 C-32.4609375 102.2775 -32.4609375 101.6175 -32.4609375 100.9375 C-33.1209375 100.9375 -33.7809375 100.9375 -34.4609375 100.9375 C-36.08203125 99.29296875 -36.08203125 99.29296875 -37.8984375 97.125 C-40.37339351 94.15239824 -40.37339351 94.15239824 -43.18359375 91.515625 C-45.07265568 89.18173809 -44.64893829 87.44926236 -44.4609375 84.5 C-44.13250867 68.40698741 -51.64596775 53.5630982 -62.4609375 41.9375 C-64.14676707 40.41481522 -65.83425024 38.89395908 -67.5234375 37.375 C-71.25400123 33.66383262 -71.25400123 33.66383262 -72.05078125 30.8671875 C-71.652523 21.48214527 -64.64448105 10.22140975 -58.34765625 3.61328125 C-41.57631375 -11.28300432 -18.49248696 -12.50196302 0 0 Z " fill="#828384" transform="translate(342.4609375,135.0625)"/>
<path d="M0 0 C5.4631907 6.65084086 4.48424188 14.79430131 4 23 C2.30616354 30.9490278 -4.08160814 36.1768879 -9.9609375 41.23046875 C-19.92701962 49.87919519 -29.65615512 60.48304667 -30.6328125 74.15625 C-30.71176587 75.56688363 -30.77393031 76.97854513 -30.8203125 78.390625 C-30.984375 80.453125 -30.984375 80.453125 -32 84 C-36.03697835 86.42023913 -39.77421132 87.36809667 -44.4375 87.6875 C-45.30246094 87.75324219 -46.16742188 87.81898438 -47.05859375 87.88671875 C-48.01958984 87.94279297 -48.01958984 87.94279297 -49 88 C-49.63351836 68.1966855 -45.30766843 53.11707216 -33.2265625 37.22265625 C-32 36 -32 36 -30 36 C-29.67 35.01 -29.34 34.02 -29 33 C-27.58831736 31.8235978 -26.17263356 30.65157049 -24.734375 29.5078125 C-22.1627801 27.27214666 -20.05498714 24.6932558 -17.8515625 22.1015625 C-15.98548429 19.98352436 -14.02662943 18.02653084 -12 16.0625 C-4.71081948 8.88695345 -4.71081948 8.88695345 0 0 Z " fill="#117072" transform="translate(235,267)"/>
<path d="M0 0 C2.38274501 2.38274501 3.02831358 4.7721665 4.13671875 7.8984375 C4.97277587 9.93372587 5.93262752 11.57472358 7.1875 13.375 C9 16 9 16 9 18 C9.8971875 18.433125 9.8971875 18.433125 10.8125 18.875 C13 20 13 20 16 22 C22.28511591 23.63141112 29.17194203 24.0138321 35.3125 21.8125 C38.41616951 19.71932754 41.19098114 17.47461185 44 15 C43.48455171 20.37440751 42.1863833 24.25565566 39.6875 29.125 C39.09324219 30.30320312 38.49898438 31.48140625 37.88671875 32.6953125 C33.69740017 40.03312516 29.01649858 44.28833382 21.0234375 47.015625 C14.5671464 48.77788808 9.64484929 49.78131732 3.40234375 46.73046875 C-4.30667385 41.90469703 -11.40078033 37.11290924 -16 29 C-15.90727802 24.96237934 -12.99823828 21.68926813 -10.8125 18.4375 C-6.87168238 12.45729547 -3.3082878 6.35710205 0 0 Z " fill="#5B5B5C" transform="translate(289,297)"/>
<path d="M0 0 C0 0.66 0 1.32 0 2 C-0.66 2.495 -1.32 2.99 -2 3.5 C-4.7054669 6.88183363 -4.50685125 9.30303831 -4.3203125 13.53125 C-3.72681782 18.10550169 -2.08673885 20.91474898 1.13989258 24.13696289 C4.68613987 26.44694267 7.48579222 26.51968577 11.57421875 26.43359375 C13.06184995 26.44320726 14.54948014 26.45297796 16.03710938 26.46289062 C18.3561636 26.45433864 20.67493515 26.43762103 22.99389648 26.4152832 C33.21616696 26.34867082 41.97123712 26.60830285 49.98461914 33.77490234 C52.84712247 36.6761745 53.92543564 38.31649336 54.375 42.4375 C54.189375 43.7059375 54.189375 43.7059375 54 45 C53.01 45.495 53.01 45.495 52 46 C49.5390625 45.0390625 49.5390625 45.0390625 46.625 43.625 C34.72092178 37.88152291 22.90390269 39.595921 10.37890625 42.3125 C4.17613066 43.57456763 -0.57391677 44.11710693 -6.25 41 C-11.03203531 37.66880175 -13.44762359 33.10475282 -16 28 C-16.92214428 19.02043109 -15.09798228 13.54370734 -10.125 6.25 C-7.40041289 3.36514306 -4.16339771 0 0 0 Z " fill="#117274" transform="translate(177,215)"/>
<path d="M0 0 C4.05523038 2.85709413 7.51585617 6.46921234 9.75 10.9375 C10.56728398 17.21891113 10.05040728 21.99605227 6.2890625 27.17578125 C2.33381308 31.70323681 -1.04554463 34.20109204 -7.1875 34.625 C-12.87408734 34.31340617 -16.36624317 31.97338556 -20.25 27.9375 C-24.03424712 23.54392495 -24.95274893 19.17736371 -24.69921875 13.43359375 C-23.69256073 7.84007657 -20.63256505 4.22360702 -16.5625 0.4375 C-10.97989747 -2.09047096 -5.77957828 -1.88947752 0 0 Z " fill="#2D2D2D" transform="translate(409.25,156.0625)"/>
<path d="M0 0 C8.24661285 9.1981451 11.83645244 20.6281323 15.4309082 32.18164062 C15.93542544 33.79367169 16.46584817 35.39754451 17 37 C15.515 36.505 15.515 36.505 14 36 C14 35.34 14 34.68 14 34 C13.34 34 12.68 34 12 34 C10.37890625 32.35546875 10.37890625 32.35546875 8.5625 30.1875 C6.09412927 27.21910094 6.09412927 27.21910094 3.28125 24.59765625 C1.35356786 22.19393066 1.78031604 20.27099898 1.9375 17.25 C2.0756223 12.27759705 1.55994573 8.6798372 0 4 C0 2.68 0 1.36 0 0 Z " fill="#59595B" transform="translate(296,202)"/>
<path d="M0 0 C1.32 0.33 2.64 0.66 4 1 C2.51697598 5.44907205 -1.08285501 7.74579392 -5 10 C-5.66 10 -6.32 10 -7 10 C-6.67 8.35 -6.34 6.7 -6 5 C-4.02 4.67 -2.04 4.34 0 4 C0 2.68 0 1.36 0 0 Z " fill="#24A49C" transform="translate(242,326)"/>
<path d="M0 0 C0 0.66 0 1.32 0 2 C-0.639375 2.61875 -1.27875 3.2375 -1.9375 3.875 C-4.03417231 6.03520783 -4.58396674 7.08776721 -5 10 C-6.32 9.34 -7.64 8.68 -9 8 C-8.67 7.34 -8.34 6.68 -8 6 C-7.34 6 -6.68 6 -6 6 C-5.896875 5.38125 -5.79375 4.7625 -5.6875 4.125 C-4.72223986 1.14146864 -3.16449578 0 0 0 Z " fill="#17787A" transform="translate(177,215)"/>
<path d="M0 0 C0.66 0 1.32 0 2 0 C2 1.98 2 3.96 2 6 C-2.455 4.02 -2.455 4.02 -7 2 C-7 1.67 -7 1.34 -7 1 C-5.5459375 1.0309375 -5.5459375 1.0309375 -4.0625 1.0625 C-1.12534105 1.35618499 -1.12534105 1.35618499 0 0 Z " fill="#146C6C" transform="translate(228,255)"/>
<path d="M0 0 C1.98 1.65 3.96 3.3 6 5 C5.01 5.495 5.01 5.495 4 6 C4.33 6.99 4.66 7.98 5 9 C2.525 8.01 2.525 8.01 0 7 C0 4.69 0 2.38 0 0 Z " fill="#25A5A1" transform="translate(257,226)"/>
<path d="M0 0 C0.99 0.33 1.98 0.66 3 1 C2.04367001 2.29315061 1.08486149 3.58446853 0.125 4.875 C-0.40867188 5.59429687 -0.94234375 6.31359375 -1.4921875 7.0546875 C-3 9 -3 9 -5 11 C-4.125 6.25 -4.125 6.25 -3 4 C-2.34 4 -1.68 4 -1 4 C-0.67 2.68 -0.34 1.36 0 0 Z " fill="#193433" transform="translate(200,304)"/>
<path d="M0 0 C0.33 0.99 0.66 1.98 1 3 C-1.31 4.98 -3.62 6.96 -6 9 C-6.66 8.67 -7.32 8.34 -8 8 C-5.36 5.36 -2.72 2.72 0 0 Z " fill="#1D6161" transform="translate(221,285)"/>
<path d="M0 0 C0.33 0.66 0.66 1.32 1 2 C-0.4726862 5.27263601 -1.42695432 6.72014048 -4.6875 8.3125 C-5.450625 8.539375 -6.21375 8.76625 -7 9 C-6.02180976 7.68677212 -5.0424189 6.37443848 -4.0625 5.0625 C-3.51722656 4.33160156 -2.97195312 3.60070312 -2.41015625 2.84765625 C-1 1 -1 1 0 0 Z " fill="#1D6365" transform="translate(229,276)"/>
<path d="M0 0 C2.97 0.33 5.94 0.66 9 1 C7.25 2.5625 7.25 2.5625 5 4 C2.75 3.6875 2.75 3.6875 1 3 C1.33 2.67 1.66 2.34 2 2 C1.34 1.34 0.68 0.68 0 0 Z " fill="#28A29A" transform="translate(207,345)"/>
<path d="M0 0 C3.08089673 2.77280706 4.68775452 5.06326356 6 9 C3.5625 7.875 3.5625 7.875 1 6 C0.1875 2.8125 0.1875 2.8125 0 0 Z " fill="#2A9C98" transform="translate(269,238)"/>
</svg>
